<?xml version="1.0" standalone="no"?><!DOCTYPE svg PUBLIC "-//W3C//DTD SVG 1.1//EN" "http://www.w3.org/Graphics/SVG/1.1/DTD/svg11.dtd"><svg t="1729825058781" class="icon" viewBox="0 0 1024 1024" version="1.1" xmlns="http://www.w3.org/2000/svg" p-id="4689" xmlns:xlink="http://www.w3.org/1999/xlink" width="200" height="200"><path d="M867.84 434.176c-19.968-38.4-48.128-61.44-83.968-69.12-17.92-4.096-36.864-3.584-54.272-0.512 6.656-26.624 8.704-54.272 6.144-81.92 29.696 13.824 62.464 25.6 84.992 40.448 44.032 29.696 52.736 68.608 52.736 68.608 4.608-19.456 23.552-93.184 8.704-168.96-16.896-86.528-93.184-178.176-189.44-126.976-13.824 8.192-24.576 24.064-31.232 43.008C590.848 75.264 481.28 51.2 374.272 85.504c-62.464 19.968-116.224 57.856-153.6 107.008-35.328-28.16-79.872-36.864-126.976-6.656-33.28 24.576-45.056 95.744-5.12 146.944 16.896 22.016 48.64 34.816 80.384 46.592 1.536 12.288 4.608 24.064 8.192 35.84 12.288 38.4 34.816 72.192 65.024 99.84-10.752 7.168-20.48 15.36-29.184 25.6-23.552 27.648-31.744 63.488-24.576 105.472v1.024c4.608 19.968 16.896 33.792 33.792 38.912 18.944 6.144 41.984 0.512 58.88-14.336 15.36-13.312 19.968-28.16 25.088-44.032 4.096-12.288 8.192-25.088 18.432-39.936 4.096-6.144 8.704-12.288 13.824-17.92 44.032 13.824 91.648 17.408 139.264 10.24 4.096 18.432 4.096 42.496-2.048 75.776-11.264 6.144-20.992 15.36-28.16 27.136-7.168 12.288-11.264 26.112-12.288 40.96v2.048c-0.512 9.728 0.512 19.456 2.56 29.184 0 1.536 0.512 3.072 1.024 4.096 1.024 3.072 1.536 6.144 2.56 9.216 11.264 31.744 35.84 54.784 62.976 61.44 2.56 0.512 5.632 1.024 8.704 1.536 7.68 1.024 15.36 0.512 23.04-1.536s14.848-5.632 21.504-10.24c-0.512 8.704-1.024 17.92-1.536 27.648h-0.512v23.552c0 11.776 0.512 29.184 4.096 46.08 5.632 24.576 17.408 43.008 40.96 48.64 1.536 0.512 3.072 0.512 4.608 1.024h6.656c13.824-1.024 26.112-8.192 36.352-20.992 1.024-1.024 2.048-2.56 2.56-3.584 0.512-0.512 0.512-1.024 1.024-1.536 1.024-1.024 1.536-2.56 2.56-3.584 0.512-1.024 1.024-2.048 2.048-3.072 0.512-1.536 1.536-2.56 2.048-4.096 1.024-2.048 2.048-3.584 2.56-5.632 0-0.512 0.512-1.024 0.512-1.536 7.168-16.384 12.288-35.84 15.36-57.344l2.048-11.776-0.512 0.512c5.632-47.616 1.536-101.888-9.216-144.896-17.408-67.072-45.568-131.072-66.56-173.568 30.72-19.456 57.344-44.032 78.336-71.168 12.8 1.536 27.648 4.608 41.984 9.216 16.896 5.632 28.16 13.312 38.912 20.48 13.824 9.216 26.624 17.92 46.592 19.456 22.016 1.536 44.032-7.68 55.808-24.064 10.752-18.432 11.776-36.352 3.584-55.296z" fill="#231815" p-id="4690"></path><path d="M675.84 239.616c-9.216-13.824-15.36-28.16-18.432-43.008-1.024-1.024-2.56-2.048-3.584-2.56-62.976 7.68-118.272 5.12-164.352-1.536-31.232 21.504-53.76 54.784-61.952 93.184 2.56 67.072 33.792 124.928 79.872 155.136-25.6-23.04-41.984-57.856-41.984-97.28 0-69.12 50.688-125.44 113.664-125.44 62.976 0 113.664 56.32 113.664 125.44 0 10.752-1.536 21.504-3.584 31.744 2.56-1.024 5.12-1.536 7.168-2.56 7.168-21.504 10.752-43.52 10.752-66.048 0-14.336-1.536-28.16-4.608-42.496-10.752-7.168-19.968-15.36-26.624-24.576zM585.728 719.872zM623.616 632.832c-0.512 0-1.024 0.512-1.536 0.512-13.312 7.168-37.376 18.432-58.88 22.528-6.656 1.024-13.824 2.56-20.48 3.072 11.776 7.68 22.016 17.92 29.696 30.72 0 0 0 0.512 0.512 0.512 0 0 0.512 0.512 0.512 1.024 0.512 0.512 1.024 1.536 1.536 2.56 1.024 2.048 2.56 4.608 3.584 6.656 0 0.512 0.512 1.024 0.512 1.536 1.024 2.56 2.56 5.12 3.072 8.192 0 0.512 0.512 0.512 0.512 1.024 1.024 3.072 2.048 6.144 3.072 9.728 1.536 5.12 2.048 9.728 3.072 14.848 24.064 1.024 48.64-8.192 60.928-13.824 0.512 0 1.024-0.512 1.024-0.512l-2.048-9.216c-6.656-28.16-15.872-54.784-25.088-79.36zM599.552 574.976c-5.12-11.776-10.24-22.528-14.848-32.256-0.512 0-1.024 0.512-1.024 0.512-16.896 9.216-35.328 16.896-54.784 23.04-9.216 3.072-18.944 5.632-28.16 7.68-0.512 0-1.024 0.512-1.536 0.512 1.536 7.68 2.56 16.384 3.072 26.112h1.536c7.68 0 19.456-0.512 34.816-2.048 25.6-3.072 48.64-12.288 60.416-23.04 0 0 0-0.512 0.512-0.512zM271.36 242.176c-2.048 1.536-4.096 3.072-5.632 4.608-7.168 5.12-14.336 9.728-20.992 13.824-13.824 8.192-27.136 14.336-37.888 18.432-6.656 19.968-10.24 39.936-10.752 60.416 11.776-33.792 33.28-56.832 58.368-59.904 1.536 0 3.584-0.512 5.12-0.512 8.192 0 16.384 2.56 24.064 6.656 13.824 7.68 25.6 21.504 34.304 39.936 0-0.512-0.512-1.024-0.512-1.536-11.264-31.744-27.136-59.904-46.08-81.92z" fill="#00A4E3" p-id="4691"></path><path d="M688.64 375.296c-1.024 5.12-2.56 9.728-4.096 14.336-2.048 5.632-4.096 10.752-6.656 15.872-6.144 11.776-13.312 22.016-22.528 30.72l-4.096 4.096-0.512 0.512c2.048-1.536 4.608-3.072 6.656-4.608 5.12-3.584 9.728-7.68 14.336-11.776l0.512-0.512c4.096-6.656 8.192-13.824 11.776-20.992 2.56-5.12 5.12-10.24 7.168-15.872 2.048-4.608 3.584-9.728 5.12-14.336-2.56 0.512-5.12 1.536-7.68 2.56z" fill="#00A4E3" p-id="4692"></path><path d="M526.336 104.448c0-0.512 0-0.512 0 0-4.096-0.512-7.68-1.536-11.264-2.048l-10.752-1.536c-38.912-4.608-80.384-0.512-121.344 12.288-54.272 17.408-101.376 49.664-134.656 90.624-1.536 1.536-2.56 3.072-3.584 5.12-1.024 1.024-2.048 2.56-3.072 3.584-0.512 0.512-0.512 1.024-1.024 1.536-5.12 7.168-9.728 14.336-14.336 21.504-2.048 3.584-4.096 7.68-6.144 11.264-2.56 5.12-5.12 10.752-7.168 15.872 7.68-3.584 15.872-7.68 24.576-12.8 7.168-4.096 14.336-8.704 21.504-14.336 1.536-1.024 2.56-2.048 3.584-3.072 1.536-1.536 3.584-2.56 5.12-4.096 1.536-1.536 3.072-2.56 4.608-4.096 23.552-19.968 48.128-47.104 69.12-84.992l3.072-5.632 5.632 3.072c0.512 0.512 33.28 18.432 89.6 32.256l6.144 1.536c2.048 0.512 4.608 1.024 6.656 1.536 16.384 3.584 34.304 6.656 53.76 8.704 37.376 4.608 80.384 5.632 128.512 1.024 6.656-0.512 12.8-1.536 19.968-2.048v-6.144c-31.744-34.816-77.312-59.392-128.512-69.12zM112.64 201.728c-11.776 8.704-38.912 35.84-18.944 86.528 14.336 35.84 44.032 54.784 72.192 66.048-1.536-40.448 7.68-81.92 27.648-120.832 3.072-6.656 7.168-12.8 10.752-18.944-27.648-22.016-61.952-31.232-91.648-12.8zM853.504 217.6c-12.288-62.976-81.92-135.168-142.848-104.448-8.704 5.632-26.624 19.456-29.696 45.568-1.024 7.168-0.512 15.36 1.024 25.088l1.536 6.144c0.512 2.048 1.024 4.608 2.048 7.168 1.536 4.608 3.072 8.704 5.12 12.288 1.024 2.048 2.048 4.608 3.584 6.656 4.608 7.68 10.24 14.848 15.872 20.992 6.144 6.656 13.312 11.776 20.48 16.896 18.944 12.8 39.936 20.48 57.344 26.624 35.328 11.776 70.656 46.592 70.656 46.592 3.072-14.848 5.632-54.272-5.12-109.568z" fill="#FFE100" p-id="4693"></path><path d="M846.848 443.904c-16.896-31.232-39.424-50.176-68.096-56.832-18.944-4.096-38.912-2.56-57.344 2.048-6.144 17.408-14.848 33.792-24.576 49.664 11.264 2.048 23.04 4.608 34.304 8.704 19.968 6.656 32.768 15.872 44.544 23.552 12.288 8.192 21.504 14.336 35.328 15.36 13.824 1.024 28.16-4.608 34.816-14.336 3.072-4.096 4.608-8.704 4.608-13.824-0.512-4.096-1.536-9.216-3.584-14.336zM261.12 529.408c-11.264 6.656-22.016 14.848-30.208 25.088-14.336 16.896-21.504 37.888-21.504 62.464 0 7.68 0.512 15.36 2.048 23.552 3.072 11.776 8.704 18.944 17.92 22.016 11.264 3.584 25.6-0.512 36.352-9.728 10.752-9.216 13.824-19.456 18.432-33.792 4.608-13.312 9.216-28.16 20.992-45.568 3.072-4.608 6.656-9.216 9.728-13.824-6.656-2.56-12.8-5.632-19.456-8.704-11.776-6.144-23.552-13.312-34.304-21.504zM578.56 476.16h-6.656c-4.096 0-8.192-0.512-11.776-1.024-1.536 0-2.56-0.512-4.096-0.512-26.624-4.608-51.2-16.384-72.192-34.304 0.512 0.512 1.024 1.024 1.536 1.024-22.016-18.432-40.448-43.008-52.736-72.192 0.512 1.024 1.024 2.56 1.024 3.584-12.8-28.16-19.968-60.416-19.968-94.72 0-34.816 7.68-67.584 20.992-96.256-44.032-11.264-73.216-24.576-84.48-30.208-20.992 36.352-45.056 62.976-68.608 82.944 19.968 23.04 36.864 52.224 47.616 86.016 19.456 60.416 16.384 120.32-5.12 162.304-2.56 4.608-5.12 9.216-8.192 13.824-4.096 5.632-8.192 10.752-12.8 15.36-2.048 2.048-4.096 4.096-6.144 5.632 4.096 2.56 8.192 4.608 12.8 7.168 8.704 4.608 17.92 8.192 27.136 11.776 4.096 1.536 8.192 3.072 12.288 4.096 4.608 1.536 8.704 2.56 13.312 3.584 33.28 8.704 69.12 10.24 104.448 5.632h1.536l10.752-1.536c3.584-0.512 6.656-1.536 10.24-2.048 0.512 0 1.024 0 1.536-0.512 9.728-2.048 18.944-4.608 28.672-7.68 17.92-5.632 34.816-12.8 50.176-21.504 0.512 0 1.024-0.512 1.024-0.512 3.072-1.536 6.144-3.072 8.704-5.12 3.072-1.536 5.632-3.584 8.704-5.12 0.512-0.512 1.024-0.512 1.536-1.024 19.456-12.8 37.376-27.648 52.736-44.032 0.512-0.512 0.512-1.024 1.024-1.024-1.024 0.512-2.56 1.024-3.584 1.536C621.056 471.04 600.576 476.16 578.56 476.16z m-141.824 24.064c-0.512 0.512-0.512 1.024-1.024 1.536-1.024 1.536-2.048 3.072-3.584 4.608l-1.024 1.024c-3.072 3.072-7.168 5.12-11.776 6.144-13.824 3.072-24.576-3.072-32.768-12.8-6.144-7.168-10.752-15.36-14.336-23.04-5.12-11.264-7.68-20.992-7.68-20.992s5.12 10.24 12.8 20.992c2.56 3.584 5.12 7.168 8.192 10.24 8.704 9.216 18.944 16.384 29.696 13.312 26.112-7.168 18.944-61.952 18.944-61.952s14.336 38.912 2.56 60.928z" fill="#F9D4BC" p-id="4694"></path><path d="M653.312 741.376c-14.848 6.144-38.912 14.336-64 13.824-1.024 10.752-3.072 21.504-7.68 31.232-0.512 9.728-1.024 20.48-1.536 32.256-1.024 13.312-1.536 26.112-2.048 38.4 14.336 6.144 27.648 9.728 39.424 10.752 13.312 1.024 26.624-2.56 36.352-6.144 3.072-17.92 4.096-37.376 4.096-57.344 0.512-20.992-1.024-42.496-4.608-62.976zM529.408 677.376c-11.264-6.656-23.04-8.704-33.792-5.632h-0.512c-0.512 0-0.512 0-1.024 0.512-4.096 1.024-8.192 3.072-11.776 5.632-5.632 4.096-10.752 9.216-14.848 16.384-1.536 2.56-3.072 5.632-4.096 8.704l-3.072 9.216c-0.512 2.048-1.024 4.096-1.024 5.632h0.512c13.312 5.12 32.256 3.584 42.496 2.048 0.512 0 1.024 0 1.536-0.512 5.12-1.024 14.336-3.072 23.552-6.656 1.024-0.512 1.536-0.512 2.56-1.024 7.68-3.584 15.36-8.192 19.968-15.36-5.632-7.68-12.8-14.336-20.48-18.944zM579.584 876.032v6.144c0 4.608 0 11.264 1.024 18.432 0.512 3.584 1.024 6.656 2.048 10.24 2.56 10.752 7.68 19.968 17.408 20.992 20.48 2.56 31.232-27.648 33.28-41.472 0.512-2.56 0.512-4.608 0.512-5.632-36.864 7.168-54.272-8.704-54.272-8.704zM524.8 734.72c0-0.512-0.512-1.024-0.512-1.536 0-0.512-0.512-1.024-0.512-1.536 0 0-0.512 0.512-2.048 1.024-0.512 0.512-1.536 0.512-2.56 1.024-9.728 4.608-35.328 13.824-57.344 2.56 0 2.048-0.512 4.096-0.512 6.144 0 7.68 1.536 15.872 4.096 24.064 3.584 10.752 9.728 20.48 17.92 25.6 4.096 2.56 9.216 4.096 14.336 4.096 16.384-1.024 39.424-26.624 27.648-58.368 0.512-1.024 0-2.048-0.512-3.072zM489.472 192.512c-14.848-2.048-28.672-4.608-41.472-7.68-13.312 27.136-20.48 59.392-20.48 93.184v8.192c8.192-39.424 30.72-72.704 61.952-93.696zM657.408 193.536c-1.024 0-2.048 0-3.072 0.512 1.024 1.024 2.56 2.048 3.584 2.56-0.512-1.024-0.512-2.048-0.512-3.072zM296.96 353.792c-5.632-3.584-12.288-5.632-19.456-5.632-2.56 0-4.608 0.512-7.168 1.024-15.36 3.072-27.648 16.896-31.232 34.304-1.024 3.584-1.024 7.168-1.024 10.752 0 5.632 1.024 10.752 2.56 15.872 5.12 15.872 17.408 28.16 32.768 30.208 1.536 0 3.072 0.512 4.096 0.512 6.656 0 13.312-2.048 18.944-5.632 12.288-7.68 20.992-23.04 20.992-40.448 0-17.92-8.192-33.28-20.48-40.96zM584.192 389.12c27.136 0 49.152-22.528 49.152-49.664 0-27.648-22.016-49.664-49.152-49.664s-49.152 22.528-49.152 49.664c0 27.136 22.016 49.664 49.152 49.664z" fill="#FFFFFF" p-id="4695"></path></svg>